<?xml version="1.0" encoding="UTF-8" standalone="no"?>
<!-- Uploaded to: SVG Repo, www.svgrepo.com, Generator: SVG Repo Mixer Tools -->

<svg
   width="800px"
   height="800px"
   viewBox="0 0 24 24"
   fill="none"
   version="1.1"
   id="svg975"
   sodipodi:docname="database.svg"
   inkscape:version="1.2.2 (732a01da63, 2022-12-09)"
   xmlns:inkscape="http://www.inkscape.org/namespaces/inkscape"
   xmlns:sodipodi="http://sodipodi.sourceforge.net/DTD/sodipodi-0.dtd"
   xmlns="http://www.w3.org/2000/svg"
   xmlns:svg="http://www.w3.org/2000/svg">
  <defs
     id="defs979" />
  <sodipodi:namedview
     id="namedview977"
     pagecolor="#505050"
     bordercolor="#eeeeee"
     borderopacity="1"
     inkscape:showpageshadow="0"
     inkscape:pageopacity="0"
     inkscape:pagecheckerboard="0"
     inkscape:deskcolor="#505050"
     showgrid="false"
     inkscape:zoom="1.005"
     inkscape:cx="400"
     inkscape:cy="400.49751"
     inkscape:window-width="1920"
     inkscape:window-height="991"
     inkscape:window-x="-9"
     inkscape:window-y="-9"
     inkscape:window-maximized="1"
     inkscape:current-layer="svg975" />
  <path
     id="path973"
     style="color:#000000;fill:#323232;-inkscape-stroke:none"
     d="m 3,7 v 10 c 0,1.644998 1.2667927,2.907805 2.8964844,3.722656 C 7.5261761,21.537508 9.6557494,22 12,22 14.34426,22 16.473826,21.537508 18.103516,20.722656 19.733206,19.907804 21,18.644995 21,17 V 7 h -2 v 10 c 0,0.564103 -0.525283,1.300722 -1.791016,1.933594 C 15.943252,19.566465 14.074036,20 12,20 9.925975,20 8.056751,19.566466 6.7910156,18.933594 5.5252802,18.300722 5,17.5641 5,17 V 7 Z m 0,5 c 0,1.644998 1.2667927,2.907805 2.8964844,3.722656 C 7.5261761,16.537508 9.6557494,17 12,17 14.34426,17 16.473826,16.537508 18.103516,15.722656 19.733206,14.907804 21,13.644995 21,12 h -2 c 0,0.564103 -0.525283,1.300722 -1.791016,1.933594 C 15.943252,14.566465 14.074036,15 12,15 9.925975,15 8.056751,14.566466 6.7910156,13.933594 5.5252802,13.300722 5,12.5641 5,12 Z M 12,2 C 9.6557525,2 7.5261778,2.462497 5.8964844,3.2773438 4.2667909,4.0921905 3,5.3549921 3,7 3,8.6450079 4.2667909,9.9078095 5.8964844,10.722656 7.5261778,11.537503 9.6557525,12 12,12 14.344257,12 16.473824,11.537503 18.103516,10.722656 19.733207,9.907809 21,8.6450049 21,7 21,5.3549951 19.733207,4.092191 18.103516,3.2773438 16.473824,2.4624965 14.344257,2 12,2 Z m 0,2 c 2.074039,0 3.943254,0.4335399 5.208984,1.0664062 C 18.474715,5.6992726 19,6.4358671 19,7 19,7.5641329 18.474715,8.3007274 17.208984,8.9335938 15.943254,9.5664601 14.074039,10 12,10 9.925972,10 8.0567493,9.5664606 6.7910156,8.9335938 5.525282,8.3007269 5,7.5641299 5,7 5,6.4358701 5.525282,5.6992731 6.7910156,5.0664062 8.0567493,4.4335394 9.925972,4 12,4 Z" />
</svg>
