<?xml version="1.0" encoding="UTF-8" standalone="no"?>
<!-- Uploaded to: SVG Repo, www.svgrepo.com, Generator: SVG Repo Mixer Tools -->

<svg
   version="1.1"
   id="Icons"
   viewBox="0 0 32 32"
   xml:space="preserve"
   sodipodi:docname="pc.svg"
   inkscape:version="1.2.2 (732a01da63, 2022-12-09)"
   xmlns:inkscape="http://www.inkscape.org/namespaces/inkscape"
   xmlns:sodipodi="http://sodipodi.sourceforge.net/DTD/sodipodi-0.dtd"
   xmlns="http://www.w3.org/2000/svg"
   xmlns:svg="http://www.w3.org/2000/svg"><defs
   id="defs440" /><sodipodi:namedview
   id="namedview438"
   pagecolor="#505050"
   bordercolor="#eeeeee"
   borderopacity="1"
   inkscape:showpageshadow="0"
   inkscape:pageopacity="0"
   inkscape:pagecheckerboard="0"
   inkscape:deskcolor="#505050"
   showgrid="false"
   inkscape:zoom="25.125"
   inkscape:cx="16"
   inkscape:cy="16.0199"
   inkscape:window-width="1920"
   inkscape:window-height="991"
   inkscape:window-x="-9"
   inkscape:window-y="-9"
   inkscape:window-maximized="1"
   inkscape:current-layer="Icons" />
<style
   type="text/css"
   id="style421">
	.st0{fill:none;stroke:#000000;stroke-width:2;stroke-linecap:round;stroke-linejoin:round;stroke-miterlimit:10;}
	.st1{fill:none;stroke:#000000;stroke-width:2;stroke-linejoin:round;stroke-miterlimit:10;}
</style>






<path
   id="line435"
   style="color:#000000;fill:#000000;stroke-linecap:round;stroke-linejoin:round;stroke-miterlimit:10;-inkscape-stroke:none"
   d="m 13,14 a 1,1 0 0 0 -1,1 1,1 0 0 0 1,1 h 4 a 1,1 0 0 0 1,-1 1,1 0 0 0 -1,-1 z M 7,8 a 1,1 0 0 0 -0.7070313,0.2929688 1,1 0 0 0 0,1.4140625 L 8.5859375,12 6.2929687,14.292969 a 1,1 0 0 0 0,1.414062 1,1 0 0 0 1.4140625,0 l 2.9999998,-3 a 1.0001,1.0001 0 0 0 0,-1.414062 L 7.7070312,8.2929688 A 1,1 0 0 0 7,8 Z m 12,14 a 1,1 0 0 0 -1,1 c 0,2.32222 0.683695,4.92449 2.013672,6.617187 a 1,1 0 0 0 1.404297,0.169922 1,1 0 0 0 0.167968,-1.404297 C 20.715916,27.275513 20,24.877776 20,23 a 1,1 0 0 0 -1,-1 z m -6,0 a 1,1 0 0 0 -1,1 c 0,1.877776 -0.715916,4.275513 -1.585937,5.382812 a 1,1 0 0 0 0.167968,1.404297 1,1 0 0 0 1.404297,-0.169922 C 13.316305,27.92449 14,25.32222 14,23 a 1,1 0 0 0 -1,-1 z m -4,6 a 1,1 0 0 0 -1,1 1,1 0 0 0 1,1 h 14 a 1,1 0 0 0 1,-1 1,1 0 0 0 -1,-1 z M 3,18 a 1,1 0 0 0 -1,1 1,1 0 0 0 1,1 h 26 a 1,1 0 0 0 1,-1 1,1 0 0 0 -1,-1 z M 5,3 C 3.3545471,3 2,4.3545471 2,6 v 15 c 0,1.645453 1.3545471,3 3,3 h 22 c 1.645453,0 3,-1.354547 3,-3 V 6 C 30,4.3545471 28.645453,3 27,3 Z m 0,2 h 22 c 0.554545,0 1,0.4454551 1,1 v 15 c 0,0.554545 -0.445455,1 -1,1 H 5 C 4.4454551,22 4,21.554545 4,21 V 6 C 4,5.4454551 4.4454551,5 5,5 Z" />
</svg>
