<?xml version="1.0" encoding="UTF-8" standalone="no"?>
<!-- Uploaded to: SVG Repo, www.svgrepo.com, Generator: SVG Repo Mixer Tools -->

<svg
   version="1.1"
   id="Icons"
   viewBox="0 0 32 32"
   xml:space="preserve"
   sodipodi:docname="web.svg"
   inkscape:version="1.2.2 (732a01da63, 2022-12-09)"
   xmlns:inkscape="http://www.inkscape.org/namespaces/inkscape"
   xmlns:sodipodi="http://sodipodi.sourceforge.net/DTD/sodipodi-0.dtd"
   xmlns="http://www.w3.org/2000/svg"
   xmlns:svg="http://www.w3.org/2000/svg"><defs
   id="defs657">
	

	

	
</defs><sodipodi:namedview
   id="namedview655"
   pagecolor="#505050"
   bordercolor="#eeeeee"
   borderopacity="1"
   inkscape:showpageshadow="0"
   inkscape:pageopacity="0"
   inkscape:pagecheckerboard="0"
   inkscape:deskcolor="#505050"
   showgrid="false"
   inkscape:zoom="25.125"
   inkscape:cx="16"
   inkscape:cy="16.0199"
   inkscape:window-width="1920"
   inkscape:window-height="991"
   inkscape:window-x="-9"
   inkscape:window-y="-9"
   inkscape:window-maximized="1"
   inkscape:current-layer="Icons" />
<style
   type="text/css"
   id="style630">
	.st0{fill:none;stroke:#000000;stroke-width:2;stroke-linecap:round;stroke-linejoin:round;stroke-miterlimit:10;}
	.st1{fill:none;stroke:#000000;stroke-width:2;stroke-linejoin:round;stroke-miterlimit:10;}
</style>







<path
   id="line652"
   style="color:#000000;display:inline;fill:#000000;stroke-linecap:round;stroke-linejoin:round;stroke-miterlimit:10;-inkscape-stroke:none"
   d="m 18.447266,14.105469 a 1,1 0 0 0 -1.341797,0.447265 l -4,8 a 1,1 0 0 0 0.447265,1.341797 1,1 0 0 0 1.341797,-0.447265 l 4,-8 a 1,1 0 0 0 -0.447265,-1.341797 z m 1.845703,1.1875 a 1,1 0 0 0 0,1.414062 L 22.585937,19 20.292969,21.292969 a 1,1 0 0 0 0,1.414062 1,1 0 0 0 1.414062,0 l 3,-3 a 1.0001,1.0001 0 0 0 0,-1.414062 l -3,-3 a 1,1 0 0 0 -1.414062,0 z M 11,15 a 1,1 0 0 0 -0.707031,0.292969 l -3.0000003,3 a 1.0001,1.0001 0 0 0 0,1.414062 l 3.0000003,3 a 1,1 0 0 0 1.414062,0 1,1 0 0 0 0,-1.414062 L 9.4140625,19 11.707031,16.707031 a 1,1 0 0 0 0,-1.414062 A 1,1 0 0 0 11,15 Z M 5,4 C 3.3545471,4 2,5.3545471 2,7 v 18 c 0,1.645453 1.3545471,3 3,3 h 22 c 1.645453,0 3,-1.354547 3,-3 V 7 C 30,5.3545471 28.645453,4 27,4 Z m 0,2 h 22 c 0.554545,0 1,0.4454551 1,1 v 18 c 0,0.554545 -0.445455,1 -1,1 H 5 C 4.4454551,26 4,25.554545 4,25 V 7 C 4,6.4454551 4.4454551,6 5,6 Z m 8,3 C 12.9,9 12.7,9 12.6,8.9 12.5,8.8 12.4,8.8 12.3,8.7 12.2,8.6 12.1,8.5 12.1,8.4 12,8.3 12,8.1 12,8 c 0,-0.1 0,-0.3 0.1,-0.4 0.1,-0.1 0.1,-0.2 0.2,-0.3 0.4,-0.4 1,-0.4 1.4,0 0.1,0.1 0.2,0.2 0.2,0.3 C 14,7.7 14,7.9 14,8 14,8.1 14,8.3 13.9,8.4 13.8,8.5 13.8,8.6 13.7,8.7 13.5,8.9 13.3,9 13,9 Z M 10,9 C 9.7,9 9.5,8.9 9.3,8.7 9.1,8.5 9,8.3 9,8 9,7.9 9,7.7 9.1,7.6 9.2,7.5 9.2,7.4 9.3,7.3 9.4,7.2 9.5,7.1 9.6,7.1 10,6.9 10.4,7 10.7,7.3 10.8,7.4 10.9,7.5 10.9,7.6 11,7.7 11,7.9 11,8 11,8.3 10.9,8.5 10.7,8.7 10.5,8.9 10.3,9 10,9 Z M 7,9 C 6.7,9 6.5,8.9 6.3,8.7 6.1,8.5 6,8.3 6,8 6,7.7 6.1,7.5 6.3,7.3 6.3,7.3 6.4,7.2 6.4,7.2 6.5,7.2 6.5,7.1 6.6,7.1 6.7,7 6.7,7 6.8,7 c 0.1,0 0.3,0 0.4,0 0.1,0 0.1,0 0.2,0.1 0.1,0 0.1,0.1 0.2,0.1 0,0 0.1,0.1 0.1,0.1 C 7.8,7.4 7.9,7.5 7.9,7.6 8,7.7 8,7.9 8,8 8,8.1 8,8.3 7.9,8.4 7.9,8.5 7.8,8.6 7.7,8.7 7.5,8.9 7.3,9 7,9 Z m -4,1 a 1,1 0 0 0 -1,1 1,1 0 0 0 1,1 h 26 a 1,1 0 0 0 1,-1 1,1 0 0 0 -1,-1 z" />
</svg>
